<svg xmlns="http://www.w3.org/2000/svg" width="120" height="120" viewBox="0 0 120 120">
  <g>
    <ellipse cx="81.1" cy="60.0" rx="15.6" ry="24.0" fill="#ffffff" opacity="0.95" transform="rotate(90.0 81.1 60.0)"/><ellipse cx="74.9" cy="74.9" rx="15.6" ry="24.0" fill="#ffffff" opacity="0.95" transform="rotate(135.0 74.9 74.9)"/><ellipse cx="60.0" cy="81.1" rx="15.6" ry="24.0" fill="#ffffff" opacity="0.95" transform="rotate(180.0 60.0 81.1)"/><ellipse cx="45.1" cy="74.9" rx="15.6" ry="24.0" fill="#ffffff" opacity="0.95" transform="rotate(225.0 45.1 74.9)"/><ellipse cx="38.9" cy="60.0" rx="15.6" ry="24.0" fill="#ffffff" opacity="0.95" transform="rotate(270.0 38.9 60.0)"/><ellipse cx="45.1" cy="45.1" rx="15.6" ry="24.0" fill="#ffffff" opacity="0.95" transform="rotate(315.0 45.1 45.1)"/><ellipse cx="60.0" cy="38.9" rx="15.6" ry="24.0" fill="#ffffff" opacity="0.95" transform="rotate(360.0 60.0 38.9)"/><ellipse cx="74.9" cy="45.1" rx="15.6" ry="24.0" fill="#ffffff" opacity="0.95" transform="rotate(405.0 74.9 45.1)"/>
    <circle cx="60.0" cy="60.0" r="10.8" fill="#ffc94d"/>
  </g>
</svg>